<mxfile host="Electron" agent="Mozilla/5.0 (Macintosh; Intel Mac OS X 10_15_7) AppleWebKit/537.36 (KHTML, like Gecko) draw.io/27.0.9 Chrome/134.0.6998.205 Electron/35.4.0 Safari/537.36" version="27.0.9" pages="4">
  <diagram name="Página-1" id="C8fRACGY6saOS8KOWegX">
    <mxGraphModel dx="1234" dy="912" grid="1" gridSize="10" guides="1" tooltips="1" connect="1" arrows="1" fold="1" page="1" pageScale="1" pageWidth="827" pageHeight="1169" math="0" shadow="0">
      <root>
        <mxCell id="0" />
        <mxCell id="1" parent="0" />
        <mxCell id="REbfEn-S2equyNGOQM9A-8" value="" style="shape=flexArrow;endArrow=classic;html=1;rounded=0;entryX=0.5;entryY=0;entryDx=0;entryDy=0;exitX=1;exitY=0.5;exitDx=0;exitDy=0;" edge="1" parent="1" source="REbfEn-S2equyNGOQM9A-3" target="REbfEn-S2equyNGOQM9A-4">
          <mxGeometry width="50" height="50" relative="1" as="geometry">
            <mxPoint x="370" y="390" as="sourcePoint" />
            <mxPoint x="420" y="340" as="targetPoint" />
          </mxGeometry>
        </mxCell>
        <mxCell id="REbfEn-S2equyNGOQM9A-6" value="" style="shape=flexArrow;endArrow=classic;html=1;rounded=0;entryX=0.5;entryY=0;entryDx=0;entryDy=0;exitX=0.5;exitY=1;exitDx=0;exitDy=0;" edge="1" parent="1" source="REbfEn-S2equyNGOQM9A-1" target="REbfEn-S2equyNGOQM9A-2">
          <mxGeometry width="50" height="50" relative="1" as="geometry">
            <mxPoint x="370" y="390" as="sourcePoint" />
            <mxPoint x="420" y="340" as="targetPoint" />
          </mxGeometry>
        </mxCell>
        <mxCell id="REbfEn-S2equyNGOQM9A-7" value="" style="shape=flexArrow;endArrow=classic;html=1;rounded=0;exitX=1;exitY=0.5;exitDx=0;exitDy=0;entryX=0.5;entryY=1;entryDx=0;entryDy=0;" edge="1" parent="1" source="REbfEn-S2equyNGOQM9A-2" target="REbfEn-S2equyNGOQM9A-3">
          <mxGeometry width="50" height="50" relative="1" as="geometry">
            <mxPoint x="370" y="390" as="sourcePoint" />
            <mxPoint x="420" y="340" as="targetPoint" />
          </mxGeometry>
        </mxCell>
        <mxCell id="REbfEn-S2equyNGOQM9A-1" value="&lt;b&gt;(1) Parse Data&lt;/b&gt;&lt;div&gt;&lt;br&gt;&lt;/div&gt;&lt;div&gt;Reads and extracts data from Dataframe or document&lt;/div&gt;" style="rounded=0;whiteSpace=wrap;html=1;" vertex="1" parent="1">
          <mxGeometry x="20" y="180" width="150" height="90" as="geometry" />
        </mxCell>
        <mxCell id="REbfEn-S2equyNGOQM9A-2" value="&lt;b&gt;(2) Build Knowledge Graph&lt;/b&gt;&lt;br&gt;&lt;br&gt;Idintifies and connects entities and relationships" style="rounded=0;whiteSpace=wrap;html=1;" vertex="1" parent="1">
          <mxGeometry x="230" y="450" width="150" height="90" as="geometry" />
        </mxCell>
        <mxCell id="REbfEn-S2equyNGOQM9A-3" value="&lt;b&gt;(3) Enrich with Metadata&lt;/b&gt;&lt;div&gt;&lt;br&gt;&lt;/div&gt;&lt;div&gt;Adds contextual information to the data&lt;/div&gt;" style="rounded=0;whiteSpace=wrap;html=1;" vertex="1" parent="1">
          <mxGeometry x="420" y="230" width="160" height="90" as="geometry" />
        </mxCell>
        <mxCell id="REbfEn-S2equyNGOQM9A-4" value="&lt;b&gt;(4) Sava to Cognee Menory&lt;/b&gt;&lt;br&gt;&lt;br&gt;Store the inriched data for future queries" style="rounded=0;whiteSpace=wrap;html=1;" vertex="1" parent="1">
          <mxGeometry x="630" y="470" width="160" height="90" as="geometry" />
        </mxCell>
      </root>
    </mxGraphModel>
  </diagram>
  <diagram name="Página-3" id="yhNHhhHix76CJjV6HkhF">
    <mxGraphModel dx="1234" dy="912" grid="1" gridSize="10" guides="1" tooltips="1" connect="1" arrows="1" fold="1" page="1" pageScale="1" pageWidth="827" pageHeight="1169" math="0" shadow="0">
      <root>
        <mxCell id="RirCtbmNjLef9DzbIYB6-0" />
        <mxCell id="RirCtbmNjLef9DzbIYB6-1" parent="RirCtbmNjLef9DzbIYB6-0" />
        <mxCell id="RirCtbmNjLef9DzbIYB6-5" value="&lt;b&gt;(1) Extract Data&lt;/b&gt;&lt;div&gt;&lt;br&gt;&lt;/div&gt;&lt;div&gt;Data is retrieved from the source&lt;/div&gt;" style="rounded=0;whiteSpace=wrap;html=1;" vertex="1" parent="RirCtbmNjLef9DzbIYB6-1">
          <mxGeometry x="30" y="540" width="150" height="90" as="geometry" />
        </mxCell>
        <mxCell id="RirCtbmNjLef9DzbIYB6-6" value="&lt;b&gt;(2) Normalize Data&lt;/b&gt;&lt;br&gt;&lt;br&gt;Data is transformed into a structred format" style="rounded=0;whiteSpace=wrap;html=1;" vertex="1" parent="RirCtbmNjLef9DzbIYB6-1">
          <mxGeometry x="337" y="540" width="150" height="90" as="geometry" />
        </mxCell>
        <mxCell id="RirCtbmNjLef9DzbIYB6-8" value="&lt;b&gt;(3) Load Data&lt;/b&gt;&lt;br&gt;&lt;br&gt;Data is loaded into the destination" style="rounded=0;whiteSpace=wrap;html=1;" vertex="1" parent="RirCtbmNjLef9DzbIYB6-1">
          <mxGeometry x="650" y="540" width="160" height="90" as="geometry" />
        </mxCell>
        <mxCell id="ayDn12_yUVOrYfdYsdzB-0" value="" style="shape=flexArrow;endArrow=classic;html=1;rounded=0;" edge="1" parent="RirCtbmNjLef9DzbIYB6-1">
          <mxGeometry width="50" height="50" relative="1" as="geometry">
            <mxPoint x="200" y="584" as="sourcePoint" />
            <mxPoint x="300" y="584" as="targetPoint" />
          </mxGeometry>
        </mxCell>
        <mxCell id="ayDn12_yUVOrYfdYsdzB-2" value="" style="shape=flexArrow;endArrow=classic;html=1;rounded=0;" edge="1" parent="RirCtbmNjLef9DzbIYB6-1">
          <mxGeometry width="50" height="50" relative="1" as="geometry">
            <mxPoint x="520" y="584" as="sourcePoint" />
            <mxPoint x="620" y="584" as="targetPoint" />
          </mxGeometry>
        </mxCell>
      </root>
    </mxGraphModel>
  </diagram>
  <diagram id="evcQ1qny8_Z9JcSp75OJ" name="Página-2">
    <mxGraphModel dx="1122" dy="829" grid="1" gridSize="10" guides="1" tooltips="1" connect="1" arrows="1" fold="1" page="1" pageScale="1" pageWidth="827" pageHeight="1169" math="0" shadow="0">
      <root>
        <mxCell id="0" />
        <mxCell id="1" parent="0" />
        <mxCell id="npTZ4-PkamFCwBVopH3b-7" value="" style="group" vertex="1" connectable="0" parent="1">
          <mxGeometry x="224" y="270" width="380" height="370" as="geometry" />
        </mxCell>
        <mxCell id="npTZ4-PkamFCwBVopH3b-1" value="" style="shape=trapezoid;perimeter=trapezoidPerimeter;whiteSpace=wrap;html=1;fixedSize=1;" vertex="1" parent="npTZ4-PkamFCwBVopH3b-7">
          <mxGeometry x="62.19999999999999" width="256.8" height="92.5" as="geometry" />
        </mxCell>
        <mxCell id="npTZ4-PkamFCwBVopH3b-3" value="" style="shape=trapezoid;perimeter=trapezoidPerimeter;whiteSpace=wrap;html=1;fixedSize=1;" vertex="1" parent="npTZ4-PkamFCwBVopH3b-7">
          <mxGeometry x="41.80000000000001" y="92.5" width="297.2" height="92.5" as="geometry" />
        </mxCell>
        <mxCell id="npTZ4-PkamFCwBVopH3b-4" value="" style="shape=trapezoid;perimeter=trapezoidPerimeter;whiteSpace=wrap;html=1;fixedSize=1;" vertex="1" parent="npTZ4-PkamFCwBVopH3b-7">
          <mxGeometry x="21" y="185" width="338" height="92.5" as="geometry" />
        </mxCell>
        <mxCell id="npTZ4-PkamFCwBVopH3b-5" value="" style="shape=trapezoid;perimeter=trapezoidPerimeter;whiteSpace=wrap;html=1;fixedSize=1;" vertex="1" parent="npTZ4-PkamFCwBVopH3b-7">
          <mxGeometry y="277.5" width="380" height="92.5" as="geometry" />
        </mxCell>
        <mxCell id="npTZ4-PkamFCwBVopH3b-8" value="Data Integration" style="text;html=1;align=center;verticalAlign=middle;whiteSpace=wrap;rounded=0;" vertex="1" parent="1">
          <mxGeometry x="70" y="585" width="60" height="30" as="geometry" />
        </mxCell>
        <mxCell id="npTZ4-PkamFCwBVopH3b-9" value="GraphRAG Pipelines" style="text;html=1;align=center;verticalAlign=middle;whiteSpace=wrap;rounded=0;" vertex="1" parent="1">
          <mxGeometry x="70" y="390" width="60" height="30" as="geometry" />
        </mxCell>
        <mxCell id="npTZ4-PkamFCwBVopH3b-11" value="Improved LLM Outputs" style="text;html=1;align=center;verticalAlign=middle;whiteSpace=wrap;rounded=0;" vertex="1" parent="1">
          <mxGeometry x="366" y="200" width="96" height="30" as="geometry" />
        </mxCell>
        <mxCell id="npTZ4-PkamFCwBVopH3b-12" value="Data Sources" style="text;html=1;align=center;verticalAlign=middle;whiteSpace=wrap;rounded=0;" vertex="1" parent="1">
          <mxGeometry x="384" y="660" width="60" height="30" as="geometry" />
        </mxCell>
        <mxCell id="npTZ4-PkamFCwBVopH3b-14" value="Efficient Retrival" style="text;html=1;align=center;verticalAlign=middle;whiteSpace=wrap;rounded=0;" vertex="1" parent="1">
          <mxGeometry x="687" y="300" width="60" height="30" as="geometry" />
        </mxCell>
        <mxCell id="npTZ4-PkamFCwBVopH3b-13" value="Knowledge Management" style="text;html=1;align=center;verticalAlign=middle;whiteSpace=wrap;rounded=0;" vertex="1" parent="1">
          <mxGeometry x="687" y="490" width="60" height="30" as="geometry" />
        </mxCell>
        <mxCell id="npTZ4-PkamFCwBVopH3b-17" value="" style="endArrow=classic;html=1;rounded=0;" edge="1" parent="1">
          <mxGeometry width="50" height="50" relative="1" as="geometry">
            <mxPoint x="677" y="320" as="sourcePoint" />
            <mxPoint x="540" y="320" as="targetPoint" />
          </mxGeometry>
        </mxCell>
        <mxCell id="npTZ4-PkamFCwBVopH3b-18" value="" style="endArrow=classic;html=1;rounded=0;" edge="1" parent="1">
          <mxGeometry width="50" height="50" relative="1" as="geometry">
            <mxPoint x="140" y="410" as="sourcePoint" />
            <mxPoint x="270" y="410" as="targetPoint" />
          </mxGeometry>
        </mxCell>
        <mxCell id="npTZ4-PkamFCwBVopH3b-19" value="" style="endArrow=classic;html=1;rounded=0;" edge="1" parent="1">
          <mxGeometry width="50" height="50" relative="1" as="geometry">
            <mxPoint x="130" y="600" as="sourcePoint" />
            <mxPoint x="230" y="600" as="targetPoint" />
          </mxGeometry>
        </mxCell>
        <mxCell id="npTZ4-PkamFCwBVopH3b-20" value="" style="endArrow=classic;html=1;rounded=0;" edge="1" parent="1">
          <mxGeometry width="50" height="50" relative="1" as="geometry">
            <mxPoint x="670" y="510" as="sourcePoint" />
            <mxPoint x="580" y="510" as="targetPoint" />
          </mxGeometry>
        </mxCell>
      </root>
    </mxGraphModel>
  </diagram>
  <diagram id="-jr7sd1M-FnsyhfU6DwL" name="Página-4">
    <mxGraphModel dx="1234" dy="912" grid="1" gridSize="10" guides="1" tooltips="1" connect="1" arrows="1" fold="1" page="1" pageScale="1" pageWidth="827" pageHeight="1169" math="0" shadow="0">
      <root>
        <mxCell id="0" />
        <mxCell id="1" parent="0" />
        <mxCell id="gMheqTiAtt-7ZqqPJPsM-6" style="rounded=0;orthogonalLoop=1;jettySize=auto;html=1;exitX=0;exitY=1;exitDx=0;exitDy=0;entryX=0.5;entryY=0;entryDx=0;entryDy=0;" edge="1" parent="1" source="gMheqTiAtt-7ZqqPJPsM-1" target="gMheqTiAtt-7ZqqPJPsM-2">
          <mxGeometry relative="1" as="geometry" />
        </mxCell>
        <mxCell id="gMheqTiAtt-7ZqqPJPsM-11" value="of" style="edgeLabel;html=1;align=center;verticalAlign=middle;resizable=0;points=[];" vertex="1" connectable="0" parent="gMheqTiAtt-7ZqqPJPsM-6">
          <mxGeometry x="-0.3047" y="4" relative="1" as="geometry">
            <mxPoint as="offset" />
          </mxGeometry>
        </mxCell>
        <mxCell id="gMheqTiAtt-7ZqqPJPsM-7" style="rounded=0;orthogonalLoop=1;jettySize=auto;html=1;exitX=0.5;exitY=1;exitDx=0;exitDy=0;entryX=0.5;entryY=0;entryDx=0;entryDy=0;" edge="1" parent="1" source="gMheqTiAtt-7ZqqPJPsM-1" target="gMheqTiAtt-7ZqqPJPsM-3">
          <mxGeometry relative="1" as="geometry" />
        </mxCell>
        <mxCell id="gMheqTiAtt-7ZqqPJPsM-12" value="by" style="edgeLabel;html=1;align=center;verticalAlign=middle;resizable=0;points=[];" vertex="1" connectable="0" parent="gMheqTiAtt-7ZqqPJPsM-7">
          <mxGeometry x="-0.3167" relative="1" as="geometry">
            <mxPoint as="offset" />
          </mxGeometry>
        </mxCell>
        <mxCell id="gMheqTiAtt-7ZqqPJPsM-8" style="rounded=0;orthogonalLoop=1;jettySize=auto;html=1;exitX=1;exitY=1;exitDx=0;exitDy=0;entryX=0.5;entryY=0;entryDx=0;entryDy=0;" edge="1" parent="1" source="gMheqTiAtt-7ZqqPJPsM-1" target="gMheqTiAtt-7ZqqPJPsM-4">
          <mxGeometry relative="1" as="geometry" />
        </mxCell>
        <mxCell id="gMheqTiAtt-7ZqqPJPsM-13" value="at" style="edgeLabel;html=1;align=center;verticalAlign=middle;resizable=0;points=[];" vertex="1" connectable="0" parent="gMheqTiAtt-7ZqqPJPsM-8">
          <mxGeometry x="-0.018" relative="1" as="geometry">
            <mxPoint as="offset" />
          </mxGeometry>
        </mxCell>
        <mxCell id="gMheqTiAtt-7ZqqPJPsM-1" value="reading_event" style="ellipse;whiteSpace=wrap;html=1;" vertex="1" parent="1">
          <mxGeometry x="319" y="20" width="190" height="190" as="geometry" />
        </mxCell>
        <mxCell id="gMheqTiAtt-7ZqqPJPsM-2" value="book" style="ellipse;whiteSpace=wrap;html=1;" vertex="1" parent="1">
          <mxGeometry x="30" y="330" width="190" height="190" as="geometry" />
        </mxCell>
        <mxCell id="gMheqTiAtt-7ZqqPJPsM-3" value="Alice" style="ellipse;whiteSpace=wrap;html=1;" vertex="1" parent="1">
          <mxGeometry x="319" y="330" width="190" height="190" as="geometry" />
        </mxCell>
        <mxCell id="gMheqTiAtt-7ZqqPJPsM-4" value="park" style="ellipse;whiteSpace=wrap;html=1;" vertex="1" parent="1">
          <mxGeometry x="600" y="330" width="190" height="190" as="geometry" />
        </mxCell>
        <mxCell id="gMheqTiAtt-7ZqqPJPsM-9" style="rounded=0;orthogonalLoop=1;jettySize=auto;html=1;exitX=0.5;exitY=0;exitDx=0;exitDy=0;entryX=0.5;entryY=1;entryDx=0;entryDy=0;" edge="1" parent="1" source="gMheqTiAtt-7ZqqPJPsM-5" target="gMheqTiAtt-7ZqqPJPsM-2">
          <mxGeometry relative="1" as="geometry" />
        </mxCell>
        <mxCell id="gMheqTiAtt-7ZqqPJPsM-14" value="of" style="edgeLabel;html=1;align=center;verticalAlign=middle;resizable=0;points=[];" vertex="1" connectable="0" parent="gMheqTiAtt-7ZqqPJPsM-9">
          <mxGeometry x="0.04" relative="1" as="geometry">
            <mxPoint as="offset" />
          </mxGeometry>
        </mxCell>
        <mxCell id="gMheqTiAtt-7ZqqPJPsM-10" style="rounded=0;orthogonalLoop=1;jettySize=auto;html=1;exitX=1;exitY=0;exitDx=0;exitDy=0;entryX=0.5;entryY=1;entryDx=0;entryDy=0;" edge="1" parent="1" source="gMheqTiAtt-7ZqqPJPsM-5" target="gMheqTiAtt-7ZqqPJPsM-3">
          <mxGeometry relative="1" as="geometry" />
        </mxCell>
        <mxCell id="gMheqTiAtt-7ZqqPJPsM-15" value="by" style="edgeLabel;html=1;align=center;verticalAlign=middle;resizable=0;points=[];" vertex="1" connectable="0" parent="gMheqTiAtt-7ZqqPJPsM-10">
          <mxGeometry x="-0.0031" y="-4" relative="1" as="geometry">
            <mxPoint as="offset" />
          </mxGeometry>
        </mxCell>
        <mxCell id="gMheqTiAtt-7ZqqPJPsM-5" value="purchese_event" style="ellipse;whiteSpace=wrap;html=1;" vertex="1" parent="1">
          <mxGeometry x="30" y="670" width="190" height="190" as="geometry" />
        </mxCell>
      </root>
    </mxGraphModel>
  </diagram>
</mxfile>
